PathFileType	4	(X/Y/Z)	C:\Users\u0145647\OneDrive - KU Leuven\KU Leuven\c3d2osim\CP16\T0\Data\Processed\ViconC3D\CP16_T0_11_gapFilled.trc
DataRate	CameraRate	NumFrames	NumMarkers	Units	OrigDataRate	OrigDataStartFrame	OrigNumFrames
100.000000	100.000000	5	47	mm	100.000000	417	666
Frame#	Time	C7			T10			CLAV			STRN			LSHO			RSHO			RBAK			LASI			RASI			LPSI			RPSI			LLAT			RLAT			LF1			LF2			LF3			LTHI			LKNE			LMEK			RF1			RF2			RF3			RTHI			RKNE			RMEK			LT1			LT2			LT3			LTIB			LMM			LANK			RT1			RT2			RT3			RTIB			RANK			RMM			LHEE			LSTL			LLCA			LTOE			LCM5			RHEE			RSTL			RLCA			RTOE			RCM5
		X1	Y1	Z1	X2	Y2	Z2	X3	Y3	Z3	X4	Y4	Z4	X5	Y5	Z5	X6	Y6	Z6	X7	Y7	Z7	X8	Y8	Z8	X9	Y9	Z9	X10	Y10	Z10	X11	Y11	Z11	X12	Y12	Z12	X13	Y13	Z13	X14	Y14	Z14	X15	Y15	Z15	X16	Y16	Z16	X17	Y17	Z17	X18	Y18	Z18	X19	Y19	Z19	X20	Y20	Z20	X21	Y21	Z21	X22	Y22	Z22	X23	Y23	Z23	X24	Y24	Z24	X25	Y25	Z25	X26	Y26	Z26	X27	Y27	Z27	X28	Y28	Z28	X29	Y29	Z29	X30	Y30	Z30	X31	Y31	Z31	X32	Y32	Z32	X33	Y33	Z33	X34	Y34	Z34	X35	Y35	Z35	X36	Y36	Z36	X37	Y37	Z37	X38	Y38	Z38	X39	Y39	Z39	X40	Y40	Z40	X41	Y41	Z41	X42	Y42	Z42	X43	Y43	Z43	X44	Y44	Z44	X45	Y45	Z45	X46	Y46	Z46	X47	Y47	Z47

417	4.16	1358	1459.2	-330.18	1249.7	1200.4	-280.65	1474	1359.9	-285.99	1471	1189.6	-260.17	1424.3	1342.1	-480.08	1376.3	1446.6	-124.09	1288.5	1411.1	-201.09	1371	930.93	-391.99	1390.9	926.98	-146.84	1220.6	976.59	-296	1226	962.03	-217.67	1319.6	1009.5	-401.07	1343.4	1010.2	-119.41	1304.7	691.64	-433.94	1326.6	736.01	-434.5	1279.7	733.02	-438.3	1312.2	594.29	-465.54	1281.4	470.23	-405.53	1248.5	468.29	-295.08	1403.9	724.09	-83.375	1367.9	743.82	-90.401	1397.5	767.1	-89.659	1438.8	646	-31.808	1516.3	511.64	-83.184	1536.6	520.33	-199.44	1244.6	396.17	-426.34	1273.3	375.28	-405.81	1243.2	346.7	-425.01	1250.5	266.64	-469.99	1142.9	78.973	-357.31	1149.6	84.33	-447.56	1485.8	372.76	-92.997	1481.2	409.63	-85.311	1516.7	396.27	-89.478	1480.8	276.09	-63.937	1420.8	119.8	-138.7	1445.4	136.06	-228.63	1085.5	69.304	-412.46	1157.9	43.279	-363.1	1159.6	52.655	-455.78	1262.7	49.922	-434.93	1243.2	32.663	-478.54	1365.2	113.68	-189.11	1454	104.72	-228.08	1438	93.657	-132.91	1543.3	98.848	-145.19	1506.8	84.485	-104.55
418	4.17	1370.1	1457.2	-328.72	1261	1199	-280.24	1485.7	1357.7	-284.64	1482.6	1187.1	-259.88	1436.7	1340.6	-478.86	1387.9	1443.3	-121.8	1300.5	1408.4	-199.43	1380.3	929.3	-393.81	1401.5	924.12	-148.26	1230.6	974.89	-296.98	1236.5	959.32	-218.47	1329.1	1008.4	-402.08	1354.1	1007.1	-120.52	1312	690.32	-435.77	1333.9	734.54	-436.46	1287.3	731.72	-440.3	1318.1	593.16	-467.39	1286.4	469.12	-407.07	1254.1	467.52	-296.01	1414.4	721.91	-85.535	1378	741.05	-92.504	1407.5	765.11	-91.668	1448.9	642.13	-35.084	1531.8	511.48	-86.566	1550.5	520.55	-202.62	1248.6	395.31	-427.61	1277.3	374.18	-407.15	1246.6	346.01	-425.96	1252.9	265.62	-470.89	1143.2	79.352	-357.15	1150	84.614	-447.53	1510.5	370.81	-94.417	1503.5	407.14	-87.505	1539.3	396.36	-92.161	1512.4	273.96	-65.22	1460.6	113.61	-137.75	1483.1	130.54	-228.49	1085.7	69.851	-412.08	1158.2	43.429	-362.88	1159.8	52.95	-455.62	1262.7	49.878	-435.19	1243.2	32.471	-478.67	1405	103.43	-187.82	1493.6	99.783	-227.73	1479.8	88.946	-132.04	1584.1	100.83	-145.47	1548.9	84.326	-104.22
419	4.18	1382.3	1454.8	-327.21	1272.5	1196.9	-279.64	1497.5	1354.7	-283.24	1494	1184	-259.8	1448.9	1338.6	-477.8	1399.5	1439.1	-119.64	1312.6	1405	-197.76	1389.7	927.51	-395.56	1412.5	920.9	-149.86	1240.8	972.71	-297.72	1246.8	956.69	-219.56	1338.7	1006.8	-402.95	1365.1	1003.8	-121.75	1319.4	688.49	-437.01	1341.9	732.53	-438.4	1295.1	730.4	-441.57	1324.7	591.54	-469.03	1292.2	467.62	-408.14	1261.1	466.5	-296.86	1425.1	718.83	-87.802	1387.8	737.99	-94.548	1418.5	762.44	-92.865	1459.3	638.67	-38.935	1547.6	511.1	-90.216	1564.2	519.99	-206.53	1253.2	394.12	-427.9	1281.7	372.6	-408.01	1250.6	344.71	-426.54	1255.5	264.49	-471.43	1144	79.516	-356.52	1150.4	84.721	-447.1	1534.2	369.34	-96.648	1525.4	405.56	-89.713	1561.7	396.61	-95.028	1544.3	273.08	-66.308	1500.2	109.32	-136.07	1520.2	125.84	-227.73	1086	70.355	-411.42	1158.8	43.349	-362.46	1160	53.313	-455.24	1262.8	49.834	-435.35	1243.1	32.411	-478.61	1444.2	94.414	-185.26	1532.3	95.622	-226.5	1520.5	85.647	-130.56	1623.6	103.62	-145.34	1590.2	85.384	-103.52
420	4.19	1394.3	1452.4	-325.1	1284.1	1194.5	-278.93	1509.4	1351.7	-281.7	1505.7	1180.7	-259.86	1460.7	1336.4	-476.49	1410.9	1434.3	-117.38	1324.6	1400.7	-196.2	1399.4	925.49	-397.45	1423.8	917.52	-151.43	1251.1	970.15	-298.1	1257.7	953.44	-220.36	1348.5	1004.8	-403.55	1376.4	1000	-122.48	1327.8	687.02	-439.13	1350.2	730.4	-439.81	1303.3	728.74	-442.67	1331.5	589.46	-470.4	1298.1	465.84	-408.94	1268.6	464.95	-297.38	1436.3	715.21	-90.088	1398.3	734.2	-97.105	1428.8	758.55	-94.427	1470.8	634.44	-42.191	1563.7	510.62	-93.983	1578	518.68	-210.69	1258.2	392.57	-428.21	1286.6	370.7	-408.71	1254.8	343.24	-426.81	1258.1	262.75	-471.6	1144.9	79.532	-355.77	1150.6	85.152	-446.35	1558.1	367.93	-98.986	1547.1	403.96	-92.135	1584.1	396.91	-98.353	1575.8	273.48	-67.898	1538.3	105.31	-134.47	1556	122.12	-226.25	1086.4	71.098	-410.07	1159.4	42.994	-361.99	1160	53.427	-454.6	1262.8	49.764	-435.21	1242.8	32.231	-478.81	1482.6	87.171	-182.22	1570.3	92.842	-224.77	1560.2	82.625	-129.17	1661.4	106.97	-144.83	1629.7	87.346	-102.32
421	4.2	1406.2	1449.3	-323.23	1295.7	1191.7	-278.23	1520.9	1348.4	-280.51	1517.2	1177	-259.95	1472.4	1334	-475.23	1422.5	1429.1	-115.23	1336	1396.5	-194.48	1409.4	922.89	-399.17	1435.4	913.94	-152.9	1261.7	967.75	-298.68	1268.8	950.01	-221.67	1358.1	1002.7	-404.6	1388.1	995.91	-123.37	1335.5	684.36	-440.16	1358.8	727.95	-440.96	1311.9	726.41	-443.65	1338.3	586.93	-471.24	1304.5	463.39	-409.29	1276.5	462.91	-297.66	1448.3	711.12	-92.407	1410	730.23	-99.223	1440.6	754.64	-95.995	1484.6	630.85	-45.652	1580.1	509.85	-97.879	1591.6	516.88	-215.24	1263.3	390.79	-428.16	1291.6	368.52	-408.98	1259.3	341.73	-426.78	1260.9	260.83	-471.22	1145.8	79.431	-355.06	1150.8	85.315	-445.42	1581.6	366.85	-101.06	1568.7	402.37	-94.973	1605.5	397.07	-101.57	1605.6	273.91	-69.168	1574.8	102.54	-133.11	1590.9	119.05	-225.08	1086.8	71.494	-408.62	1159.6	42.814	-361.27	1159.9	53.648	-453.77	1262.8	49.677	-435.32	1242.6	32.335	-478.66	1520	80.673	-179.71	1606.6	89.994	-223.09	1598.4	81.517	-127.32	1697.9	110.28	-144.1	1667.7	90.072	-101.3
